<?xml version="1.0" encoding="UTF-8"?>
<svg xmlns="http://www.w3.org/2000/svg" width="512" height="512" viewBox="0 0 256 256">
  <defs>
    <style>
      .bg { fill: #ffffff; }
      .fg { fill: #000000; }
      .hint { fill: #0a0a0a; font-family: Arial, Helvetica, sans-serif; font-size: 12px; }
      .badge { fill: #1976d2; }
      .badgeText { fill: #ffffff; font-family: Arial, Helvetica, sans-serif; font-size: 12px; font-weight: bold; }
    </style>
  </defs>
  <!-- Background -->
  <rect class="bg" x="0" y="0" width="256" height="256" rx="12"/>

  <!-- Fake QR finder patterns -->
  <rect class="fg" x="16" y="16" width="56" height="56"/>
  <rect class="bg" x="24" y="24" width="40" height="40"/>
  <rect class="fg" x="32" y="32" width="24" height="24"/>

  <rect class="fg" x="184" y="16" width="56" height="56"/>
  <rect class="bg" x="192" y="24" width="40" height="40"/>
  <rect class="fg" x="200" y="32" width="24" height="24"/>

  <rect class="fg" x="16" y="184" width="56" height="56"/>
  <rect class="bg" x="24" y="192" width="40" height="40"/>
  <rect class="fg" x="32" y="200" width="24" height="24"/>

  <!-- Random blocks to mimic QR modules -->
  <g>
    <rect class="fg" x="92" y="20" width="10" height="10"/>
    <rect class="fg" x="108" y="20" width="10" height="10"/>
    <rect class="fg" x="124" y="20" width="10" height="10"/>
    <rect class="fg" x="140" y="20" width="10" height="10"/>

    <rect class="fg" x="92" y="44" width="10" height="10"/>
    <rect class="fg" x="116" y="44" width="10" height="10"/>
    <rect class="fg" x="140" y="44" width="10" height="10"/>

    <rect class="fg" x="92" y="68" width="10" height="10"/>
    <rect class="fg" x="100" y="68" width="10" height="10"/>
    <rect class="fg" x="124" y="68" width="10" height="10"/>
    <rect class="fg" x="148" y="68" width="10" height="10"/>

    <rect class="fg" x="96" y="96" width="10" height="10"/>
    <rect class="fg" x="112" y="96" width="10" height="10"/>
    <rect class="fg" x="128" y="96" width="10" height="10"/>
    <rect class="fg" x="144" y="96" width="10" height="10"/>

    <rect class="fg" x="96" y="116" width="10" height="10"/>
    <rect class="fg" x="116" y="116" width="10" height="10"/>
    <rect class="fg" x="136" y="116" width="10" height="10"/>

    <rect class="fg" x="96" y="136" width="10" height="10"/>
    <rect class="fg" x="108" y="136" width="10" height="10"/>
    <rect class="fg" x="132" y="136" width="10" height="10"/>
    <rect class="fg" x="152" y="136" width="10" height="10"/>

    <rect class="fg" x="80" y="160" width="10" height="10"/>
    <rect class="fg" x="100" y="160" width="10" height="10"/>
    <rect class="fg" x="120" y="160" width="10" height="10"/>
    <rect class="fg" x="140" y="160" width="10" height="10"/>
    <rect class="fg" x="160" y="160" width="10" height="10"/>

    <rect class="fg" x="80" y="180" width="10" height="10"/>
    <rect class="fg" x="92" y="180" width="10" height="10"/>
    <rect class="fg" x="132" y="180" width="10" height="10"/>
    <rect class="fg" x="152" y="180" width="10" height="10"/>

    <rect class="fg" x="80" y="200" width="10" height="10"/>
    <rect class="fg" x="104" y="200" width="10" height="10"/>
    <rect class="fg" x="128" y="200" width="10" height="10"/>
    <rect class="fg" x="168" y="200" width="10" height="10"/>
  </g>

  <!-- Demo badge -->
  <rect class="badge" x="72" y="228" width="112" height="18" rx="9"/>
  <text class="badgeText" x="128" y="240" text-anchor="middle">DEMO QR • NOT REAL</text>
  <text class="hint" x="128" y="256" text-anchor="middle"></text>
</svg>
